<?xml version="1.0" encoding="UTF-8"?>
<svg id="Capa_2" data-name="Capa 2" xmlns="http://www.w3.org/2000/svg" viewBox="0 0 490 490">
  <defs>
    <style>
      .cls-1 {
        fill: #101010;
      }

      .cls-2 {
        fill: #8f67dd;
      }
    </style>
  </defs>
  <g id="Layer_2" data-name="Layer 2">
    <path class="cls-2" d="m456.42,121.13v247.74c-8.57,14.61-18.62,28.24-29.94,40.71H63.52c-6.63-7.29-12.81-14.99-18.52-23.04V103.46c8.66-12.22,18.42-23.62,29.13-34.04h341.74c15.71,15.29,29.38,32.68,40.55,51.71Z"/>
    <g id="Layer_1-2" data-name="Layer 1-2">
      <path class="cls-1" d="m456.42,121.13c-11.17-19.03-24.84-36.42-40.55-51.71C371.73,26.46,311.46,0,245,0S118.27,26.46,74.13,69.42c-10.71,10.42-20.47,21.82-29.13,34.04C16.66,143.43,0,192.27,0,245s16.66,101.57,45,141.54c5.71,8.05,11.89,15.75,18.52,23.04,44.81,49.4,109.52,80.42,181.48,80.42s136.67-31.02,181.48-80.42c11.32-12.47,21.37-26.1,29.94-40.71,21.34-36.34,33.58-78.67,33.58-123.87s-12.24-87.53-33.58-123.87Zm-153.08,11.97c-.08.33-.17.65-.27.97l-67.5,236.25c-3.11,10.86-13.03,18.35-24.32,18.36-2.36,0-4.7-.33-6.97-.97-13.44-3.85-21.22-17.85-17.38-31.29l67.5-236.25c3.57-13.52,17.42-21.58,30.94-18.01,13.52,3.57,21.58,17.43,18,30.94ZM58.34,263.15c-9.88-9.88-9.89-25.91-.01-35.8h.01l67.5-67.5c9.89-9.89,25.92-9.89,35.81,0,9.89,9.89,9.89,25.92,0,35.81l-49.61,49.6,49.61,49.59c9.89,9.88,9.9,25.9,0,35.79h0c-4.75,4.75-11.18,7.42-17.9,7.42s-13.16-2.66-17.91-7.41l-67.5-67.5Zm373.33-.01s-.01.01-.01.01l-67.5,67.5c-4.75,4.75-11.19,7.41-17.91,7.41-13.98.01-25.32-11.32-25.32-25.3-.01-6.72,2.66-13.17,7.42-17.92l49.61-49.59-49.61-49.6c-9.89-9.89-9.89-25.92,0-35.81s25.92-9.89,35.81,0l67.5,67.5c9.89,9.88,9.89,25.91.01,35.8Z"/>
    </g>
  </g>
</svg>