<?xml version="1.0" encoding="UTF-8"?>
<svg id="Capa_2" data-name="Capa 2" xmlns="http://www.w3.org/2000/svg" viewBox="0 0 388.15 287.37">
  <defs>
    <style>
      .cls-1 {
        fill: #8f67dd;
      }
    </style>
  </defs>
  <g id="Layer_2" data-name="Layer 2">
    <g>
      <path class="cls-1" d="m110.73,193.54c9.89,9.88,9.9,25.9,0,35.79h0c-4.75,4.75-11.18,7.42-17.9,7.42s-13.16-2.66-17.91-7.41L7.42,161.84c-9.88-9.88-9.89-25.91-.01-35.8h.01L74.92,58.54c9.89-9.89,25.92-9.89,35.81,0,9.89,9.89,9.89,25.92,0,35.81l-49.61,49.6,49.61,49.59Z"/>
      <path class="cls-1" d="m252.42,31.79c-.08.33-.17.65-.27.97l-67.5,236.25c-3.11,10.86-13.03,18.35-24.32,18.36-2.36,0-4.7-.33-6.97-.97-13.44-3.85-21.22-17.85-17.38-31.29L203.48,18.86c3.57-13.52,17.42-21.58,30.94-18.01,13.52,3.57,21.58,17.43,18,30.94Z"/>
      <path class="cls-1" d="m380.74,161.83s-.01.01-.01.01l-67.5,67.5c-4.75,4.75-11.19,7.41-17.91,7.41-13.98.01-25.32-11.32-25.32-25.3-.01-6.72,2.66-13.17,7.42-17.92l49.61-49.59-49.61-49.6c-9.89-9.89-9.89-25.92,0-35.81s25.92-9.89,35.81,0l67.5,67.5c9.89,9.88,9.89,25.91.01,35.8Z"/>
    </g>
  </g>
</svg>