<?xml version="1.0" encoding="UTF-8"?>
<svg id="Layer_2" data-name="Layer 2" xmlns="http://www.w3.org/2000/svg" viewBox="0 0 490 490">
  <defs>
    <style>
      .cls-1 {
        fill: #fff;
        stroke-width: 0px;
      }
    </style>
  </defs>
  <g id="Layer_1-2" data-name="Layer 1">
    <path class="cls-1" d="m245,0C109.69,0,0,109.69,0,245s109.69,245,245,245,245-109.69,245-245S380.31,0,245,0Zm-83.34,330.64c-4.75,4.75-11.19,7.42-17.91,7.42s-13.16-2.66-17.91-7.41l-67.5-67.5c-9.88-9.88-9.89-25.91-.01-35.8.01,0,.01,0,.01,0l67.5-67.5c9.89-9.89,25.92-9.89,35.81,0s9.89,25.92,0,35.81l-49.61,49.6,49.61,49.59c9.89,9.88,9.9,25.91,0,35.8Zm141.68-197.54c-.08.33-.17.65-.27.97l-67.5,236.25c-3.11,10.86-13.03,18.35-24.32,18.36-2.36,0-4.7-.33-6.97-.97-13.44-3.85-21.22-17.85-17.38-31.29l67.5-236.25c3.57-13.52,17.42-21.58,30.94-18.01,13.52,3.57,21.58,17.43,18,30.94Zm128.32,130.05l-67.5,67.5c-4.75,4.75-11.19,7.41-17.91,7.41-13.98.01-25.32-11.32-25.32-25.3-.01-6.72,2.66-13.17,7.42-17.92l49.61-49.59-49.61-49.6c-9.89-9.89-9.89-25.92,0-35.81s25.92-9.89,35.81,0l67.5,67.5c9.89,9.88,9.89,25.91.01,35.8-.01,0-.01.01-.01.01Z"/>
  </g>
</svg>